<svg xmlns="http://www.w3.org/2000/svg" xmlns:xlink="http://www.w3.org/1999/xlink" version="1.1" baseProfile="full" viewBox="0 0 200 200" width="200" height="200">
<g fill="black">
<path d="M 23.1 185.2 L 19.8 183.6 L 12.1 174.3 L 13.8 173.3 L 17.6 171.4 L 21.4 169.6 L 29.2 165.6 L 33.2 163.6 L 37.2 161.5 L 44 158.1 L 44 109 L 14 109 L 14 105 L 44 105 L 50 100 L 61 109 L 56 113 L 56 153.7 L 59.5 156.8 L 64.9 160.7 L 70.8 164.1 L 73.2 165 L 76.9 162.8 L 82.8 158.8 L 87.9 154.7 L 92.3 150.5 L 95.9 146.2 L 98.8 141.7 L 101 137 L 102.5 132.2 L 103.4 127.2 L 103.6 122.8 L 103.6 121.8 L 63.3 121.8 L 63.3 117.8 L 116.7 117.8 L 116.7 102.9 L 128.7 104.9 L 131.7 106.9 L 128.7 108.7 L 128.7 117.8 L 166.2 117.8 L 174.4 108.8 L 184.4 117.8 L 184.4 121.8 L 113 121.8 L 115.6 122.4 L 118.5 124.5 L 115 126.4 L 114.6 129.1 L 113.2 133.8 L 150.8 133.8 L 156.8 128.8 L 167.8 137.8 L 162.8 140.8 L 162.7 140.9 L 162.5 144.1 L 162.2 147.7 L 161.7 151.1 L 161 154.1 L 160.1 156.9 L 158.9 159.4 L 157.2 161.8 L 155 163.8 L 152.2 165.2 L 148 166.4 L 145.9 166.9 L 141.7 167.7 L 139.5 168 L 137.4 168.2 L 135.2 168.4 L 133 168.5 L 130.9 168.5 L 130.9 162.5 L 110.9 159.5 L 110.9 156.5 L 132.7 156.5 L 136.3 156.3 L 138 156.1 L 141.6 155.5 L 143.3 155.2 L 145.1 154.8 L 148.2 153.9 L 148.9 152.5 L 149.4 151 L 149.9 148.9 L 150.3 146.3 L 150.6 143.2 L 150.7 139.7 L 150.7 137.8 L 111.6 137.8 L 110.1 141.3 L 106.6 146.7 L 102.4 151.7 L 97.4 156.1 L 91.8 160 L 85.5 163.4 L 78.5 166.3 L 77.5 166.6 L 78 166.8 L 87.1 169 L 98.6 170.6 L 113 171.6 L 130.9 171.9 L 152.6 171.5 L 178.7 170.4 L 190 169.9 L 179.2 183.5 L 152.9 184 L 130.7 183.7 L 112.3 182.6 L 97.2 180.8 L 85 178.1 L 75.1 174.6 L 67.2 170.3 L 61.1 165.3 L 56.4 159.6 L 54.3 155.9 L 52 158.1 L 48.4 161.5 L 44.9 164.6 L 41.3 167.7 L 37.7 170.6 L 26.9 178.7 L 23.3 181.2 Z M 64.4 113.3 L 64.1 111.5 L 71.1 109.2 L 77.4 106.8 L 83.1 104.4 L 88 101.8 L 92.3 99.1 L 95.8 96.2 L 98.7 93.3 L 100.9 90.2 L 102.6 87.1 L 104.2 82.3 L 115 87.7 L 117.2 90.6 L 113.1 91.5 L 112.6 92.4 L 109.5 96.7 L 105.8 100.4 L 101.5 103.6 L 96.6 106.4 L 91.2 108.7 L 85.3 110.6 L 78.9 112 L 71.9 112.9 Z M 144.9 107.9 L 142.7 107.8 L 140.5 107.3 L 138.3 106.4 L 136.4 105.1 L 134.7 103.4 L 133.3 101.4 L 132.3 99.2 L 131.6 96.8 L 131.2 94.3 L 131.2 83.3 L 143.2 85.3 L 146.2 87.3 L 143.2 89.1 L 143.2 94.3 L 143 95.5 L 143 97.9 L 143.1 98.4 L 143.3 98.9 L 143.8 99.5 L 144.6 100 L 145.7 100.4 L 147.2 100.8 L 174.3 100.8 L 177.2 95.8 L 179.2 95.8 L 177.5 101 L 179.3 102.2 L 180.7 104.3 L 179.3 106.4 L 177.2 107.8 L 147.2 107.8 Z M 66.4 100.4 L 62.9 97.5 L 62.6 92.9 L 65.6 89.4 L 66.6 89.3 L 67.6 89 L 68.7 88.4 L 69.8 87.5 L 71 86.3 L 72.1 84.6 L 73.1 82.6 L 74 80.2 L 74.9 77.4 L 75.1 74.4 L 76.9 74.3 L 77.1 77.5 L 77.3 78.3 L 117.5 78.3 L 117.5 66.9 L 91.8 66.9 L 79.8 72.9 L 79.8 18.5 L 91.8 24.5 L 108.2 24.5 L 109.5 22.9 L 112.3 19.9 L 113.5 18.4 L 114.8 17 L 115.9 15.6 L 117 14.3 L 118.1 12.9 L 118.4 12.5 L 118.2 12.3 L 119.1 11.6 L 126.3 21.2 L 126.5 24.5 L 155.2 24.5 L 161.2 19.5 L 172.2 28.5 L 167.2 32.5 L 167.2 66.9 L 155.2 72.9 L 155.2 66.9 L 129.5 66.9 L 132.5 68.9 L 129.5 70.7 L 129.5 78.3 L 169.8 78.3 L 170.8 77.5 L 171 76.7 L 171.4 77 L 175.8 73.3 L 186.8 82.3 L 181.8 85.3 L 174.1 88.5 L 172.9 89.3 L 171.1 90.4 L 169.1 91.7 L 167 92.9 L 164.7 94.1 L 162.6 95.8 L 161.4 94.5 L 163.1 92.6 L 164.4 90.3 L 165.5 88.2 L 166.6 86.2 L 167.6 84.4 L 168.7 82.3 L 77.9 82.3 L 78 83.4 L 78 86.2 L 77.8 88.8 L 77.2 91.4 L 76.2 93.9 L 74.9 96.2 L 73.1 98.3 L 71 100.1 Z M 46.6 84.6 L 42.5 82.6 L 40.5 79.9 L 38.3 77.2 L 36.1 74.7 L 33.7 72.2 L 31.2 69.7 L 28.5 67.3 L 25.7 65 L 22.8 62.6 L 19.8 60.3 L 16.5 58.2 L 17.2 56.5 L 21.1 57.6 L 24.9 58.6 L 28.6 60 L 32.2 61.5 L 35.7 63.3 L 39.1 65.2 L 42.4 67.3 L 45.5 69.6 L 48.6 72.1 L 51.5 74.7 L 52.9 79.1 L 50.9 83.2 Z M 91.8 62.9 L 155.2 62.9 L 155.2 53.6 L 91.8 53.6 Z M 91.8 49.6 L 155.2 49.6 L 155.2 41.2 L 91.8 41.2 Z M 55.3 49.4 L 51.4 47.2 L 49.7 44.5 L 47.9 41.9 L 46 39.3 L 43.9 36.8 L 41.6 34.3 L 39.1 31.8 L 36.5 29.4 L 33.7 26.9 L 30.7 24.4 L 27.5 22.2 L 28.2 20.6 L 32.1 21.8 L 35.9 23.1 L 39.5 24.6 L 43 26.2 L 46.4 28.1 L 49.6 30.2 L 52.7 32.4 L 55.6 34.7 L 58.3 37.3 L 61 40 L 62 44.4 L 59.8 48.4 Z M 91.8 37.2 L 155.2 37.2 L 155.2 28.5 L 91.8 28.5 Z M 117.1 24.5 L 125.8 24.5 L 121.9 22.9 L 119.3 23.8 L 117.4 24.4 Z " />
</g>
</svg>
