<svg xmlns="http://www.w3.org/2000/svg" xmlns:xlink="http://www.w3.org/1999/xlink" version="1.1" baseProfile="full" viewBox="0 0 200 200" width="200" height="200">
<g fill="black">
<path d="M 19.7 182.5 L 18.3 180.6 L 16.4 177.7 L 16.2 177.5 L 14.4 174.8 L 14.2 174.6 L 13.7 173.9 L 13.4 173.4 L 17.2 171.2 L 28.9 164.3 L 41.2 157.1 L 44 155.6 L 44 95 L 14 95 L 14 91 L 44 91 L 50 86 L 61 95 L 56 99 L 56 151 L 59.6 154.7 L 65 159.3 L 70.9 163.1 L 78.1 166.2 L 87.1 168.7 L 98.4 170.4 L 112.7 171.5 L 130.4 171.9 L 151.9 171.5 L 177.7 170.4 L 178.2 183.5 L 152.1 184 L 130.2 183.7 L 112 182.5 L 97 180.6 L 84.7 177.7 L 74.9 173.9 L 67 169.2 L 61 163.7 L 56.3 157.3 L 54.2 153.1 L 52 155.4 L 48.6 158.9 L 45 162.3 L 37.8 168.7 L 34.3 171.8 L 30.7 174.8 L 27.2 177.7 L 23.4 180.7 L 23.5 184.7 L 20.2 183.3 Z M 178.2 182.5 L 178.1 180.6 L 178 177.7 L 178 177.5 L 177.9 174.8 L 177.9 174.6 L 177.8 173.9 L 177.8 171.8 L 177.7 171.5 L 177.7 170.4 L 189 169.9 L 178.2 183.5 Z M 13.4 173.4 L 20.2 183.3 L 11.7 174.6 Z M 155.6 164.1 L 153.6 165.2 L 151.6 166.2 L 149.5 167.1 L 147.3 167.8 L 145.2 168.5 L 143 169 L 140.8 169.4 L 138.5 169.7 L 136.2 169.9 L 134 170 L 134 164 L 114 161 L 114 158 L 134 158 L 135.6 157.9 L 137.3 157.8 L 138.9 157.6 L 140.5 157.3 L 142 156.9 L 143.6 156.4 L 145.1 155.9 L 146.6 155.3 L 148.9 154.1 L 149.2 153.3 L 149.5 152 L 149.9 150.4 L 150.2 148.4 L 150.5 146.1 L 150.7 143.5 L 150.8 143 L 109.8 143 L 109.2 144.2 L 106.2 148.7 L 102.6 152.7 L 98.4 156.2 L 93.7 159.2 L 88.4 161.6 L 82.6 163.5 L 76.2 164.8 L 75.7 163.1 L 81.1 160.1 L 85.9 157 L 90 153.8 L 93.5 150.6 L 96.3 147.2 L 98.5 143.6 L 100.1 140 L 101.2 136.1 L 101.8 132.1 L 101.9 130 L 67 130 L 67 126 L 119.1 126 L 117.3 124.8 L 116.9 123.4 L 116.1 120.8 L 115.1 118.2 L 114.5 116.9 L 113.9 115.7 L 113.2 114.4 L 112.5 113 L 111.4 112.2 L 112.3 110.7 L 113.6 111.3 L 115.2 111.6 L 116.8 112 L 118.4 112.5 L 119.9 113.2 L 122.9 114.8 L 124.4 115.8 L 125.9 116.9 L 127.3 118.1 L 128.1 122.6 L 125.9 126 L 162.8 126 L 171 117 L 181 126 L 181 130 L 113.6 130 L 113.1 133.9 L 111.6 139 L 151 139 L 157 134 L 168 143 L 163 146 L 162.5 146.2 L 162.4 147.5 L 162.1 150.1 L 161.7 152.6 L 161.2 154.9 L 160.6 156.9 L 159.9 158.8 L 159 160.7 L 157.6 162.5 Z M 105.1 95.4 L 114 103.5 L 115 107 L 111 106.4 L 110.8 106.6 L 107.3 109.5 L 103.6 112.1 L 99.6 114.4 L 95.3 116.5 L 90.8 118.3 L 86 119.9 L 81 121.2 L 75.7 122.1 L 70.2 122.8 L 69.7 121.1 L 74.7 118.8 L 79.3 116.4 L 83.6 114.1 L 87.6 111.7 L 91.3 109.3 L 94.6 106.8 L 97.6 104.2 L 100.3 101.5 L 102.6 98.8 L 104.1 96.8 L 104 96.7 Z M 150.1 116.5 L 148.6 114.5 L 146.9 112.6 L 145 110.6 L 142.8 108.8 L 140.4 106.9 L 137.9 105.1 L 135 103.3 L 132 101.5 L 128.7 100.1 L 129.1 98.3 L 132.8 98.9 L 136.5 99.4 L 140 100.1 L 143.4 101 L 146.6 102.1 L 149.7 103.5 L 152.6 105 L 155.4 106.7 L 158.1 108.6 L 160.6 110.8 L 161.9 115.2 L 159.9 119.2 L 155.5 120.6 L 151.4 118.5 Z M 63.1 106.5 L 73.7 112.1 L 70.1 115 L 65.5 114.6 L 62.7 111 Z M 72.9 111.7 L 72.8 111.6 L 71 110.7 L 70.9 110.6 L 70.5 110.4 L 69 109.6 L 67.8 109 L 67.5 108.8 L 65.9 108 L 64 107 L 63.9 106.9 L 63.1 106.5 L 64.4 104.7 L 65.6 102.8 L 66.5 100.8 L 67.3 98.7 L 67.9 96.5 L 68.4 94.2 L 68.6 91.7 L 68.6 89 L 68.4 86.1 L 67.6 83.2 L 69.2 82.5 L 70.7 85.2 L 72.4 87.9 L 72.9 89 L 118.8 89 L 117.4 88.2 L 116.6 85.6 L 115.8 83.2 L 114.8 80.8 L 114.3 79.5 L 113.8 78.3 L 113.2 77 L 112.3 76.3 L 113.2 75 L 92 75 L 80 81 L 80 25 L 92 31 L 111.6 31 L 112 30.5 L 113.2 28.4 L 115.8 24.4 L 117 22.5 L 118.3 20.6 L 119.5 18.8 L 120.7 16.9 L 121.9 15.2 L 122.5 14.3 L 122.3 14.1 L 123.3 13.1 L 131.5 21.9 L 132.2 25.4 L 127.8 24.3 L 125.9 25.4 L 124 26.6 L 122 27.8 L 120 28.9 L 117.9 30.1 L 116.1 31 L 157 31 L 163 26 L 174 35 L 169 39 L 169 75 L 157 81 L 157 75 L 113.7 75 L 114.4 75.4 L 115.8 75.7 L 117.3 76 L 120.1 77 L 121.5 77.6 L 122.9 78.4 L 124.3 79.1 L 125.6 80 L 127 80.9 L 128 85.4 L 126 89 L 170 89 L 170.5 88.6 L 170.6 88.3 L 170.8 88.4 L 176 84 L 187 93 L 182 96 L 178.3 97.6 L 173.6 102.8 L 171.9 104.6 L 168.3 108 L 166.3 109.6 L 164.7 111.5 L 163.2 110.4 L 164.4 108.3 L 165.1 105.9 L 165.8 103.6 L 166.6 101.3 L 169.2 93 L 74.5 93 L 74.7 93.5 L 75.4 96.5 L 75.7 99.6 L 75.7 102.7 L 75.4 105.8 L 74.7 109 L 73.7 112.1 Z M 157 61 L 92 61 L 92 71 L 157 71 Z M 47.7 53.3 L 46 50.2 L 44 47.2 L 41.8 44.2 L 39.3 41.2 L 36.6 38.2 L 33.7 35.2 L 30.5 32.2 L 27.1 29.2 L 23.4 26.2 L 24.3 24.6 L 28.8 26.4 L 33.1 28.2 L 37.2 30.3 L 41.1 32.7 L 44.8 35.2 L 48.2 37.9 L 51.4 40.7 L 54.4 43.8 L 57.1 47 L 59.6 50.3 L 60.2 54.9 L 57.5 58.5 L 52.9 59.1 L 49.3 56.4 Z M 157 47 L 92 47 L 92 57 L 157 57 Z M 157 35 L 92 35 L 92 43 L 157 43 Z M 155.6 164.1 L 155.5 164 L 155.4 163.7 L 155.3 163.5 L 155 163.1 L 154.6 162.3 L 154.3 161.9 L 154.2 161.6 L 153.6 160.7 L 153.3 160.1 L 152.8 159.3 L 152.8 159.2 L 152.6 158.9 L 152.5 158.8 L 152.1 158 L 152 157.9 L 152 157.8 L 151.8 157.6 L 151.7 157.4 L 151.7 157.3 L 151.6 157.1 L 151.4 156.9 L 151.2 156.4 L 151 156.2 L 150.9 155.9 L 150.6 155.4 L 150.5 155.3 L 150.3 154.9 L 150.2 154.8 L 150.2 154.7 L 149.9 154.3 L 149.8 154.1 L 149.7 153.8 L 149.6 153.7 Z " />
</g>
</svg>
