<svg xmlns="http://www.w3.org/2000/svg" xmlns:xlink="http://www.w3.org/1999/xlink" version="1.1" baseProfile="full" viewBox="0 0 200 200" width="200" height="200">
<g fill="black">
<path d="M 23.1 185.2 L 19.8 183.6 L 12.1 174.3 L 13.8 173.3 L 17.6 171.4 L 21.4 169.6 L 29.2 165.6 L 33.2 163.6 L 37.2 161.5 L 44 158.1 L 44 109 L 14 109 L 14 105 L 44 105 L 50 100 L 61 109 L 56 113 L 56 153.7 L 59.5 156.8 L 64.9 160.7 L 70.8 164.1 L 74.5 165.5 L 77.3 163.8 L 83.1 159.7 L 88.1 155.5 L 92.3 151.1 L 95.8 146.6 L 98.7 141.8 L 100.8 136.8 L 102.3 131.6 L 103.2 126.1 L 103.3 122.5 L 64 122.5 L 64 118.5 L 116.2 118.5 L 116.2 103.5 L 128.2 105.5 L 131.2 107.5 L 128.2 109.3 L 128.2 118.5 L 164.4 118.5 L 172.6 109.5 L 182.6 118.5 L 182.6 122.5 L 115.2 122.5 L 114.4 127.9 L 112.6 134.6 L 149.6 134.6 L 155.6 129.6 L 166.6 138.6 L 161.6 141.6 L 161.5 141.6 L 161.4 144.9 L 161 148.5 L 160.5 151.9 L 159.9 154.9 L 159 157.7 L 157.9 160.2 L 156.3 162.6 L 154.2 164.6 L 151.4 166 L 149.3 166.7 L 147.2 167.3 L 145.1 167.8 L 142.9 168.2 L 140.8 168.6 L 138.7 168.9 L 136.5 169.2 L 134.3 169.3 L 132.2 169.4 L 130 169.5 L 130 163.5 L 110 160.5 L 110 157.5 L 130 157.5 L 131.8 157.4 L 133.6 157.4 L 137.2 157 L 138.9 156.8 L 140.7 156.4 L 142.4 156.1 L 144.2 155.7 L 145.9 155.2 L 147.2 154.8 L 147.8 153.5 L 148.3 151.9 L 148.7 149.8 L 149.1 147.2 L 149.4 144.1 L 149.6 140.5 L 149.6 138.6 L 110.9 138.6 L 110 140.9 L 106.6 146.6 L 102.5 151.9 L 97.6 156.5 L 92.1 160.7 L 85.9 164.2 L 79.2 167.1 L 87.1 169 L 98.6 170.6 L 113 171.6 L 130.9 171.9 L 152.6 171.5 L 178.7 170.4 L 190 169.9 L 179.2 183.5 L 152.9 184 L 130.7 183.7 L 112.3 182.6 L 97.2 180.8 L 85 178.1 L 75.1 174.6 L 67.2 170.3 L 61.1 165.3 L 56.4 159.6 L 54.3 155.9 L 52 158.1 L 48.4 161.5 L 44.9 164.6 L 41.3 167.7 L 37.7 170.6 L 26.9 178.7 L 23.3 181.2 Z M 144.2 105.9 L 141.9 105.7 L 139.7 105.2 L 137.5 104.2 L 135.5 102.9 L 133.9 101.1 L 132.5 99.1 L 131.5 96.8 L 130.9 94.4 L 130.6 91.9 L 130.6 83.6 L 117.7 83.6 L 115.3 88.2 L 112.2 92.4 L 108.6 96.1 L 104.4 99.4 L 99.7 102.2 L 94.5 104.6 L 88.8 106.7 L 82.6 108.3 L 75.8 109.4 L 68.6 110.1 L 68.2 108.3 L 74.9 105.8 L 80.9 103.2 L 86.3 100.6 L 91 97.9 L 95.1 95 L 98.6 92.1 L 101.4 89.1 L 103.6 86 L 104.9 83.6 L 77.8 83.6 L 77.9 84.3 L 78 86.7 L 77.7 89.1 L 77.1 91.4 L 76.1 93.7 L 74.7 95.8 L 72.9 97.6 L 70.8 99.3 L 66.3 99.3 L 62.9 96.1 L 62.9 91.6 L 66.1 88.2 L 67 88.2 L 68 88.1 L 69 87.8 L 70.1 87.2 L 71.1 86.2 L 72.2 85 L 73.2 83.4 L 74.1 81.4 L 74.9 79.1 L 75.1 76.6 L 76.9 76.5 L 77.1 79.2 L 77.2 79.6 L 168.8 79.6 L 169.8 78.8 L 170.2 77.7 L 170.6 78.1 L 174.8 74.6 L 185.8 83.6 L 180.8 86.6 L 168.8 91.6 L 168.8 91.1 L 167.9 91.5 L 165.9 92.5 L 163.7 93.4 L 161.7 94.8 L 160.6 93.4 L 162.3 91.7 L 163.6 89.7 L 164.8 87.9 L 165.9 86.1 L 166.9 84.4 L 167.4 83.6 L 142.6 83.6 L 142.6 91.9 L 142.4 93.1 L 142.4 94.8 L 142.5 95.4 L 142.6 95.8 L 142.8 96.3 L 143.3 96.7 L 144 97.2 L 145.1 97.6 L 146.6 97.9 L 172.5 97.9 L 176.1 88.9 L 178.1 88.9 L 176.3 98 L 178.5 99.5 L 180.1 101.9 L 178.5 104.3 L 176.1 105.9 Z M 46.6 84.6 L 42.5 82.6 L 40.5 79.9 L 38.3 77.2 L 36.1 74.7 L 33.7 72.2 L 31.2 69.7 L 28.5 67.3 L 25.7 65 L 22.8 62.6 L 19.8 60.3 L 16.5 58.2 L 17.2 56.5 L 21.1 57.6 L 24.9 58.6 L 28.6 60 L 32.2 61.5 L 35.7 63.3 L 39.1 65.2 L 42.4 67.3 L 45.5 69.6 L 48.6 72.1 L 51.5 74.7 L 52.9 79.1 L 50.9 83.2 Z M 78.6 74.9 L 78.6 19.6 L 90.6 25.6 L 114.3 25.6 L 115 24.1 L 115.6 22.7 L 116.2 21.2 L 116.7 19.9 L 117.1 18.6 L 117.5 17.4 L 117.8 16.2 L 118 15.2 L 117.5 14.9 L 118.6 13.3 L 128.2 20.6 L 129.6 23.9 L 123.8 23.7 L 125.8 22.3 L 123.2 23.9 L 119.8 25.6 L 155.3 25.6 L 161.3 20.6 L 172.3 29.6 L 167.3 33.6 L 167.3 68.9 L 155.3 74.9 L 155.3 68.9 L 90.6 68.9 Z M 90.6 64.9 L 155.3 64.9 L 155.3 55.2 L 90.6 55.2 Z M 90.6 51.2 L 155.3 51.2 L 155.3 42.4 L 90.6 42.4 Z M 55.3 49.4 L 51.4 47.2 L 49.7 44.5 L 47.9 41.9 L 46 39.3 L 43.9 36.8 L 41.6 34.3 L 39.1 31.8 L 36.5 29.4 L 33.7 26.9 L 30.7 24.4 L 27.5 22.2 L 28.2 20.6 L 32.1 21.8 L 35.9 23.1 L 39.5 24.6 L 43 26.2 L 46.4 28.1 L 49.6 30.2 L 52.7 32.4 L 55.6 34.7 L 58.3 37.3 L 61 40 L 62 44.4 L 59.8 48.4 Z M 90.6 38.4 L 155.3 38.4 L 155.3 29.6 L 90.6 29.6 Z " />
</g>
</svg>
