<svg xmlns="http://www.w3.org/2000/svg" xmlns:xlink="http://www.w3.org/1999/xlink" version="1.1" baseProfile="full" viewBox="0 0 200 200" width="200" height="200">
<g fill="black">
<path d="M 23.5 184.7 L 20.2 183.3 L 11.7 174.6 L 13.4 173.4 L 17.2 171.2 L 28.9 164.3 L 41.2 157.1 L 44 155.6 L 44 95 L 14 95 L 14 91 L 44 91 L 50 86 L 61 95 L 56 99 L 56 151 L 59.6 154.7 L 65 159.3 L 70.9 163.1 L 71.8 163.5 L 76.3 161 L 81.4 157.6 L 85.8 154 L 89.6 150.2 L 92.9 146 L 95.7 141.5 L 98 136.5 L 99.8 131.2 L 101.1 125.4 L 101.5 122 L 67 122 L 67 118 L 115 118 L 115 100 L 127 102 L 130 104 L 127 105.8 L 127 118 L 163.8 118 L 172 109 L 182 118 L 182 122 L 113.6 122 L 112.2 128 L 110.8 132 L 154 132 L 160 127 L 171 136 L 166 139 L 165.4 139.2 L 165 142.5 L 164.5 146 L 163.9 149.2 L 163.2 152.1 L 162.4 154.7 L 161.6 157.1 L 160.5 159.3 L 159.2 161.3 L 157.5 163.2 L 155.6 164.6 L 153.7 165.9 L 151.6 167.1 L 149.6 168.1 L 147.4 169 L 145.2 169.7 L 143 170.2 L 140.7 170.6 L 138.3 170.9 L 136 171 L 136 165 L 116 162 L 116 159 L 136 159 L 137.5 158.9 L 139.1 158.7 L 140.5 158.5 L 141.9 158.2 L 144.7 157.2 L 147.3 155.8 L 148.5 154.9 L 149.8 153.9 L 149.7 154 L 150 153.5 L 150.5 152.5 L 151 151.1 L 151.6 149.1 L 152.1 146.7 L 152.6 144 L 153.1 140.8 L 153.6 137.3 L 153.7 136 L 109.3 136 L 107.1 140.9 L 103.6 146.4 L 99.5 151.4 L 94.8 155.7 L 89.7 159.4 L 84 162.3 L 77.8 164.4 L 75.2 165 L 78.1 166.2 L 87.1 168.7 L 98.4 170.4 L 112.7 171.5 L 130.4 171.9 L 151.9 171.5 L 177.7 170.4 L 189 169.9 L 178.2 183.5 L 152.1 184 L 130.2 183.7 L 112 182.5 L 97 180.6 L 84.7 177.7 L 74.9 173.9 L 67 169.2 L 61 163.7 L 56.3 157.3 L 54.2 153.1 L 52 155.4 L 48.6 158.9 L 45 162.3 L 37.8 168.7 L 34.3 171.8 L 30.7 174.8 L 27.2 177.7 L 23.4 180.7 Z M 70.1 115 L 65.5 114.6 L 62.7 111 L 63.1 106.5 L 64.4 104.7 L 65.6 102.8 L 66.5 100.8 L 67.3 98.7 L 67.9 96.5 L 68.4 94.2 L 68.6 91.7 L 68.6 89 L 68.4 86.1 L 67.6 83.2 L 69.2 82.5 L 70.7 85.2 L 72.4 87.9 L 72.9 89 L 116 89 L 116 75 L 92 75 L 80 81 L 80 25 L 92 31 L 111.6 31 L 112 30.5 L 113.2 28.4 L 115.8 24.4 L 117 22.5 L 118.3 20.6 L 119.5 18.8 L 120.7 16.9 L 121.9 15.2 L 122.5 14.3 L 122.3 14.1 L 123.3 13.1 L 131.5 21.9 L 132.2 25.4 L 127.8 24.3 L 125.9 25.4 L 124 26.6 L 122 27.8 L 120 28.9 L 117.9 30.1 L 116.1 31 L 157 31 L 163 26 L 174 35 L 169 39 L 169 75 L 157 81 L 157 75 L 128 75 L 128 89 L 170 89 L 170.5 88.6 L 170.6 88.3 L 170.8 88.4 L 176 84 L 187 93 L 182 96 L 178.3 97.6 L 173.6 102.8 L 171.9 104.6 L 168.3 108 L 166.3 109.6 L 164.7 111.5 L 163.2 110.4 L 164.4 108.3 L 165.1 105.9 L 165.8 103.6 L 166.6 101.3 L 169.2 93 L 74.5 93 L 74.7 93.5 L 75.4 96.5 L 75.7 99.6 L 75.7 102.7 L 75.4 105.8 L 74.7 109 L 73.7 112.1 Z M 92 71 L 157 71 L 157 61 L 92 61 Z M 52.9 59.1 L 49.3 56.4 L 47.7 53.3 L 46 50.2 L 44 47.2 L 41.8 44.2 L 39.3 41.2 L 36.6 38.2 L 33.7 35.2 L 30.5 32.2 L 27.1 29.2 L 23.4 26.2 L 24.3 24.6 L 28.8 26.4 L 33.1 28.2 L 37.2 30.3 L 41.1 32.7 L 44.8 35.2 L 48.2 37.9 L 51.4 40.7 L 54.4 43.8 L 57.1 47 L 59.6 50.3 L 60.2 54.9 L 57.5 58.5 Z M 92 57 L 157 57 L 157 47 L 92 47 Z M 92 43 L 157 43 L 157 35 L 92 35 Z " />
</g>
</svg>
