<svg xmlns="http://www.w3.org/2000/svg" xmlns:xlink="http://www.w3.org/1999/xlink" version="1.1" baseProfile="full" viewBox="0 0 200 200" width="200" height="200">
<g fill="black">
<path d="M 23.5 184.7 L 20.2 183.3 L 11.7 174.6 L 13.4 173.4 L 17.2 171.2 L 28.9 164.3 L 41.2 157.1 L 44 155.6 L 44 95 L 14 95 L 14 91 L 44 91 L 50 86 L 61 95 L 56 99 L 56 151 L 59.6 154.7 L 65 159.3 L 70.9 163.1 L 78.1 166.2 L 79 166.5 L 81.4 165 L 85.9 161.7 L 89.7 158.1 L 93 154.1 L 95.8 149.9 L 98 145.3 L 99.8 140.3 L 101.2 134.9 L 101.6 132 L 67 132 L 67 128 L 115 128 L 115 110 L 127 112 L 130 114 L 127 115.8 L 127 128 L 159 128 L 169 118 L 181 128 L 181 132 L 113.6 132 L 112.2 137.7 L 111 141 L 151 141 L 157 136 L 168 145 L 163 148 L 162.6 148.2 L 162.4 149.8 L 162 152.7 L 161.6 155.3 L 161.1 157.7 L 160.5 159.9 L 159.8 162 L 158.8 163.9 L 157.5 165.7 L 155.6 167.4 L 153.6 168.6 L 151.6 169.7 L 149.5 170.7 L 147.4 171.6 L 151.9 171.5 L 177.7 170.4 L 189 169.9 L 178.2 183.5 L 152.1 184 L 130.2 183.7 L 112 182.5 L 97 180.6 L 84.7 177.7 L 74.9 173.9 L 72.6 172.6 L 71.2 172.8 L 70.8 171.5 L 67 169.2 L 61 163.7 L 56.3 157.3 L 54.2 153.1 L 52 155.4 L 48.6 158.9 L 45 162.3 L 37.8 168.7 L 34.3 171.8 L 30.7 174.8 L 27.2 177.7 L 23.4 180.7 Z M 130.4 171.9 L 134 171.8 L 134 168 L 114 165 L 114 162 L 134 162 L 137.2 161.8 L 138.8 161.5 L 140.3 161.2 L 141.8 160.8 L 143.3 160.3 L 146.1 159.1 L 147.5 158.3 L 148.6 157.6 L 149.1 156.3 L 149.4 154.9 L 149.8 153.1 L 150.2 151 L 150.5 148.5 L 150.7 145.7 L 150.8 145 L 109.4 145 L 107 149.9 L 103.5 155.1 L 99.4 159.8 L 94.7 163.8 L 89.6 167.1 L 86.5 168.5 L 87.1 168.7 L 98.4 170.4 L 112.7 171.5 Z M 70.2 122.8 L 69.7 121.1 L 74.7 118.8 L 79.3 116.4 L 83.6 114.1 L 87.6 111.7 L 91.3 109.3 L 94.6 106.8 L 97.6 104.2 L 100.3 101.5 L 102.6 98.8 L 104.1 96.8 L 104 96.7 L 105.1 95.4 L 114 103.5 L 115 107 L 111 106.4 L 110.8 106.6 L 107.3 109.5 L 103.6 112.1 L 99.6 114.4 L 95.3 116.5 L 90.8 118.3 L 86 119.9 L 81 121.2 L 75.7 122.1 Z M 155.5 120.6 L 151.4 118.5 L 150.1 116.5 L 148.6 114.5 L 146.9 112.6 L 145 110.6 L 142.8 108.8 L 140.4 106.9 L 137.9 105.1 L 135 103.3 L 132 101.5 L 128.7 100.1 L 129.1 98.3 L 132.8 98.9 L 136.5 99.4 L 140 100.1 L 143.4 101 L 146.6 102.1 L 149.7 103.5 L 152.6 105 L 155.4 106.7 L 158.1 108.6 L 160.6 110.8 L 161.9 115.2 L 159.9 119.2 Z M 70.1 115 L 65.5 114.6 L 62.7 111 L 63.1 106.5 L 64.4 104.7 L 65.6 102.8 L 66.5 100.8 L 67.3 98.7 L 67.9 96.5 L 68.4 94.2 L 68.6 91.7 L 68.6 89 L 68.4 86.1 L 67.6 83.2 L 69.2 82.5 L 70.7 85.2 L 72.4 87.9 L 72.9 89 L 116 89 L 116 71 L 128 71 L 128 89 L 170 89 L 170.5 88.6 L 170.6 88.3 L 170.8 88.4 L 176 84 L 187 93 L 182 96 L 178.3 97.6 L 173.6 102.8 L 171.9 104.6 L 168.3 108 L 166.3 109.6 L 164.7 111.5 L 163.2 110.4 L 164.4 108.3 L 165.1 105.9 L 165.8 103.6 L 166.6 101.3 L 169.2 93 L 74.5 93 L 74.7 93.5 L 75.4 96.5 L 75.7 99.6 L 75.7 102.7 L 75.4 105.8 L 74.7 109 L 73.7 112.1 Z M 77 80 L 77 28 L 89 34 L 108.4 34 L 109.1 33.1 L 110.5 30.7 L 111.9 28.4 L 114.7 24 L 117.3 20 L 118.6 18.1 L 119.8 16.2 L 120.4 15.2 L 120.3 15.1 L 121.3 14.1 L 129.5 22.9 L 130.2 26.4 L 125.8 25.3 L 123.9 26.6 L 119.9 29.2 L 115.5 32 L 113.2 33.4 L 112.2 34 L 157 34 L 163 29 L 174 38 L 169 42 L 169 73 L 157 79 L 157 71 L 89 71 L 89 74 Z M 89 67 L 157 67 L 157 54 L 89 54 Z M 52.9 59.1 L 49.3 56.4 L 47.7 53.3 L 46 50.2 L 44 47.2 L 41.8 44.2 L 39.3 41.2 L 36.6 38.2 L 33.7 35.2 L 30.5 32.2 L 27.1 29.2 L 23.4 26.2 L 24.3 24.6 L 28.8 26.4 L 33.1 28.2 L 37.2 30.3 L 41.1 32.7 L 44.8 35.2 L 48.2 37.9 L 51.4 40.7 L 54.4 43.8 L 57.1 47 L 59.6 50.3 L 60.2 54.9 L 57.5 58.5 Z M 89 50 L 157 50 L 157 38 L 89 38 Z " />
</g>
</svg>
