<svg xmlns="http://www.w3.org/2000/svg" xmlns:xlink="http://www.w3.org/1999/xlink" version="1.1" baseProfile="full" viewBox="0 0 200 200" width="200" height="200">
<g fill="black">
<path d="M 23.5 184.7 L 20.2 183.3 L 11.7 174.6 L 13.4 173.4 L 17.2 171.2 L 28.9 164.3 L 41.2 157.1 L 44 155.6 L 44 95 L 14 95 L 14 91 L 44 91 L 50 86 L 61 95 L 56 99 L 56 151 L 59.6 154.7 L 65 159.3 L 70.9 163.1 L 72 163.6 L 75.2 161.6 L 80.2 157.8 L 84.6 153.8 L 88.5 149.4 L 91.8 144.7 L 94.6 139.6 L 96.9 134 L 98.7 127.9 L 100.1 121.3 L 100.6 117 L 67 117 L 67 113 L 114 113 L 114 92 L 126 94 L 129 96 L 126 97.8 L 126 113 L 163.8 113 L 172 104 L 182 113 L 182 117 L 112.6 117 L 111.2 123.7 L 109.6 129 L 152 129 L 158 124 L 169 133 L 164 136 L 163.4 136.2 L 163 139.9 L 162.4 143.5 L 161.8 146.9 L 161.1 150 L 160.3 152.8 L 159.4 155.3 L 158.4 157.6 L 157.1 159.7 L 155.4 161.6 L 153.6 163.2 L 151.7 164.6 L 149.7 165.8 L 147.6 166.9 L 145.5 167.9 L 143.3 168.6 L 141 169.2 L 138.7 169.6 L 136.3 169.9 L 134 170 L 134 164 L 114 161 L 114 158 L 134 158 L 135.5 157.9 L 137 157.7 L 138.4 157.5 L 139.8 157.1 L 141.1 156.7 L 142.4 156.1 L 143.7 155.4 L 144.9 154.7 L 146.1 153.8 L 147.3 152.8 L 147.4 152.6 L 147.8 152 L 148.3 150.8 L 148.9 149.2 L 149.5 147 L 150.1 144.5 L 150.6 141.6 L 151.1 138.2 L 151.6 134.5 L 151.7 133 L 108.2 133 L 106.1 137.9 L 102.7 144.1 L 98.6 149.7 L 94 154.6 L 88.8 158.8 L 83.1 162.3 L 76.9 165 L 75.9 165.3 L 78.1 166.2 L 87.1 168.7 L 98.4 170.4 L 112.7 171.5 L 130.4 171.9 L 151.9 171.5 L 177.7 170.4 L 189 169.9 L 178.2 183.5 L 152.1 184 L 130.2 183.7 L 112 182.5 L 97 180.6 L 84.7 177.7 L 74.9 173.9 L 67 169.2 L 61 163.7 L 56.3 157.3 L 54.2 153.1 L 52 155.4 L 48.6 158.9 L 45 162.3 L 37.8 168.7 L 34.3 171.8 L 30.7 174.8 L 27.2 177.7 L 23.4 180.7 Z M 65.7 108.7 L 62.6 105.4 L 62.7 100.8 L 63.9 98.7 L 65 96.6 L 65.9 94.5 L 66.6 92.2 L 67.1 89.8 L 67.5 87.4 L 67.6 84.8 L 67.6 82 L 67.4 79.1 L 66.6 76.2 L 68.2 75.5 L 69.7 78.2 L 71.4 80.9 L 71.9 82 L 79 82 L 79 26 L 91 32 L 110.3 32 L 110.9 31.2 L 112.1 28.8 L 113.3 26.5 L 114.6 24.2 L 115.9 22.1 L 117.1 20 L 118.4 18 L 120.8 14.2 L 121.4 13.2 L 121.3 13.1 L 122.3 12.1 L 130.5 20.9 L 131.2 24.4 L 126.9 23.3 L 125.1 24.5 L 123.2 25.8 L 121.2 27.1 L 119.2 28.5 L 117.1 29.9 L 114.9 31.4 L 113.9 32 L 156 32 L 162 27 L 173 36 L 168 40 L 168 82 L 169 82 L 169.5 81.6 L 169.5 81.5 L 169.6 81.5 L 175 77 L 186 86 L 181 89 L 177.6 90.4 L 177.5 90.6 L 174.3 94.6 L 170.9 98.4 L 167.3 102 L 165.3 103.6 L 163.7 105.5 L 162.2 104.4 L 163.4 102.3 L 164.8 97.5 L 165.5 95.2 L 166.3 92.9 L 167 90.6 L 167.6 88.3 L 168.3 86 L 73.6 86 L 73.8 86.6 L 74.6 89.6 L 75 92.7 L 75.2 95.9 L 75 99.1 L 74.5 102.3 L 73.6 105.6 L 70.3 108.7 Z M 91 82 L 156 82 L 156 69 L 91 69 Z M 91 65 L 156 65 L 156 52 L 91 52 Z M 52.9 59.1 L 49.3 56.4 L 47.7 53.3 L 46 50.2 L 44 47.2 L 41.8 44.2 L 39.3 41.2 L 36.6 38.2 L 33.7 35.2 L 30.5 32.2 L 27.1 29.2 L 23.4 26.2 L 24.3 24.6 L 28.8 26.4 L 33.1 28.2 L 37.2 30.3 L 41.1 32.7 L 44.8 35.2 L 48.2 37.9 L 51.4 40.7 L 54.4 43.8 L 57.1 47 L 59.6 50.3 L 60.2 54.9 L 57.5 58.5 Z M 91 48 L 156 48 L 156 36 L 91 36 Z " />
</g>
</svg>
