<svg xmlns="http://www.w3.org/2000/svg" xmlns:xlink="http://www.w3.org/1999/xlink" version="1.1" baseProfile="full" viewBox="0 0 200 200" width="200" height="200">
<g fill="black">
<path d="M 23.5 184.7 L 20.2 183.3 L 11.7 174.6 L 13.4 173.4 L 17.2 171.2 L 28.9 164.3 L 41.2 157.1 L 44 155.6 L 44 95 L 14 95 L 14 91 L 44 91 L 50 86 L 61 95 L 56 99 L 56 151 L 59.6 154.7 L 65 159.3 L 70.9 163.1 L 76.2 165.4 L 80.4 162.6 L 84.8 159 L 88.6 155.2 L 91.9 151 L 94.7 146.5 L 97 141.5 L 98.8 136.2 L 100.1 130.4 L 100.5 127 L 67 127 L 67 123 L 114 123 L 114 104 L 126 106 L 129 108 L 126 109.8 L 126 123 L 160 123 L 170 113 L 182 123 L 182 127 L 112.6 127 L 111.2 133 L 109.8 137 L 150 137 L 156 132 L 167 141 L 162 144 L 161.6 144.2 L 161.4 146.1 L 161.1 149.2 L 160.6 151.9 L 160.1 154.4 L 159.5 156.7 L 158.8 158.8 L 157.9 160.8 L 156.5 162.6 L 154.6 164.4 L 152.6 165.6 L 150.6 166.7 L 148.5 167.7 L 146.4 168.6 L 144.3 169.3 L 142.1 169.9 L 139.8 170.4 L 137.6 170.7 L 135.3 170.9 L 133 171 L 133 165 L 113 162 L 113 159 L 133 159 L 136.2 158.8 L 137.8 158.5 L 139.3 158.2 L 140.8 157.8 L 142.3 157.3 L 145.1 156.1 L 146.5 155.3 L 147.5 154.7 L 147.7 154.3 L 148 153.2 L 148.4 151.7 L 148.8 149.8 L 149.2 147.5 L 149.5 144.9 L 149.7 141.9 L 149.8 141 L 108.3 141 L 106.1 145.9 L 102.6 151.4 L 98.5 156.4 L 93.8 160.7 L 88.7 164.4 L 83 167.3 L 82.6 167.4 L 87.1 168.7 L 98.4 170.4 L 112.7 171.5 L 130.4 171.9 L 151.9 171.5 L 177.7 170.4 L 189 169.9 L 178.2 183.5 L 152.1 184 L 130.2 183.7 L 112 182.5 L 97 180.6 L 84.7 177.7 L 74.9 173.9 L 67 169.2 L 61 163.7 L 56.3 157.3 L 54.2 153.1 L 52 155.4 L 48.6 158.9 L 45 162.3 L 37.8 168.7 L 34.3 171.8 L 30.7 174.8 L 27.2 177.7 L 23.4 180.7 Z M 69.2 117.8 L 68.7 116.1 L 73.6 113.6 L 78.2 111 L 82.5 108.5 L 86.5 106 L 90.1 103.4 L 93.4 100.7 L 96.4 97.9 L 99.1 95 L 101.5 92.1 L 103.6 89.1 L 104 88.5 L 113.1 96.4 L 114.3 99.8 L 110.3 99.3 L 109.9 99.7 L 106.5 102.8 L 102.7 105.6 L 98.7 108.1 L 94.5 110.4 L 89.9 112.5 L 85.2 114.3 L 80.1 115.8 L 74.8 116.9 Z M 159.2 116.3 L 155.4 114.7 L 151.8 113 L 148.3 111.1 L 145 108.9 L 141.7 106.6 L 138.7 104.2 L 135.7 101.5 L 133 98.6 L 130.5 95.5 L 128.1 92.3 L 129.3 91 L 132.6 93 L 136.1 94.7 L 139.4 96.3 L 146 99.1 L 149.3 100.3 L 152.6 101.3 L 156 102.2 L 159.3 103 L 162.7 103.6 L 163.4 102.3 L 164.8 97.5 L 165.5 95.2 L 166.3 92.9 L 167 90.6 L 167.6 88.3 L 168.3 86 L 73.6 86 L 73.8 86.6 L 74.6 89.6 L 75 92.7 L 75.2 95.9 L 75 99.1 L 74.5 102.3 L 73.6 105.6 L 70.3 108.7 L 65.7 108.7 L 62.6 105.4 L 62.7 100.8 L 63.9 98.7 L 65 96.6 L 65.9 94.5 L 66.6 92.2 L 67.1 89.8 L 67.5 87.4 L 67.6 84.8 L 67.6 82 L 67.4 79.1 L 66.6 76.2 L 68.2 75.5 L 69.7 78.2 L 71.4 80.9 L 71.9 82 L 79 82 L 79 26 L 91 32 L 110.3 32 L 110.9 31.2 L 112.1 28.8 L 113.3 26.5 L 114.6 24.2 L 115.9 22.1 L 117.1 20 L 118.4 18 L 120.8 14.2 L 121.4 13.2 L 121.3 13.1 L 122.3 12.1 L 130.5 20.9 L 131.2 24.4 L 126.9 23.3 L 125.1 24.5 L 123.2 25.8 L 121.2 27.1 L 119.2 28.5 L 117.1 29.9 L 114.9 31.4 L 113.9 32 L 156 32 L 162 27 L 173 36 L 168 40 L 168 82 L 169 82 L 169.5 81.6 L 169.5 81.5 L 169.6 81.5 L 175 77 L 186 86 L 181 89 L 177.6 90.4 L 177.5 90.6 L 174.3 94.6 L 170.9 98.4 L 167.3 102 L 165.3 103.6 L 164.8 104.2 L 170.9 105.9 Z M 91 82 L 156 82 L 156 69 L 91 69 Z M 91 65 L 156 65 L 156 52 L 91 52 Z M 52.9 59.1 L 49.3 56.4 L 47.7 53.3 L 46 50.2 L 44 47.2 L 41.8 44.2 L 39.3 41.2 L 36.6 38.2 L 33.7 35.2 L 30.5 32.2 L 27.1 29.2 L 23.4 26.2 L 24.3 24.6 L 28.8 26.4 L 33.1 28.2 L 37.2 30.3 L 41.1 32.7 L 44.8 35.2 L 48.2 37.9 L 51.4 40.7 L 54.4 43.8 L 57.1 47 L 59.6 50.3 L 60.2 54.9 L 57.5 58.5 Z M 91 48 L 156 48 L 156 36 L 91 36 Z " />
</g>
</svg>
